<svg width="1504" height="641" viewBox="0 0 1504 641" fill="none" xmlns="http://www.w3.org/2000/svg">
<rect width="1504" height="641" rx="67" fill="url(#paint0_linear_726_84)"/>
<mask id="mask0_726_84" style="mask-type:alpha" maskUnits="userSpaceOnUse" x="0" y="0" width="1504" height="641">
<rect width="1504" height="641" rx="67" fill="#4E91F7"/>
</mask>
<g mask="url(#mask0_726_84)">
<ellipse cx="62.5" cy="196.67" rx="18.5" ry="17.9674" fill="#5DB9F2"/>
<ellipse cx="800.5" cy="-6.17588" rx="48.5" ry="47.1038" fill="#5DB9F2"/>
<ellipse cx="37" cy="641" rx="37" ry="35.9348" fill="#5DB9F2"/>
<ellipse cx="230" cy="486.577" rx="37" ry="35.9348" fill="#5DB9F2"/>
<ellipse cx="778.5" cy="161.297" rx="18.5" ry="17.9674" fill="#5DB9F2"/>
<ellipse cx="1311.5" cy="185.016" rx="28.5" ry="27.6795" fill="#5DB9F2"/>
<path fill-rule="evenodd" clip-rule="evenodd" d="M1389.57 498.704C1432.74 485.749 1484.16 486.602 1526.86 500.344C1572.3 514.966 1615.17 541.312 1629.37 575.872C1643.26 609.661 1613.8 643.515 1599.55 677.225C1587.53 705.672 1581.41 736.643 1552.5 757.741C1524.37 778.264 1483.67 785.895 1444.29 790.505C1408.4 794.707 1371.48 793.069 1337.96 782.858C1306.58 773.301 1286.06 753.03 1262.58 735.156C1237.86 716.33 1204.77 700.785 1196.86 675.424C1188.77 649.513 1198.25 620.482 1220.15 599.188C1240.73 579.179 1283.32 581.241 1309.96 565.441C1342 546.435 1351.33 510.183 1389.57 498.704Z" fill="#5DB9F2"/>
<path fill-rule="evenodd" clip-rule="evenodd" d="M35.7481 103.153C-7.28512 107.521 -53.2055 97.5657 -87.0697 77.1649C-123.105 55.456 -152.99 23.2916 -154.423 -11.4117C-155.824 -45.3412 -118.259 -71.6074 -94.4045 -100.45C-74.2747 -124.789 -58.6278 -152.531 -25.7267 -167.019C6.27616 -181.112 45.3451 -180.964 82.2443 -178.239C115.869 -175.755 148.508 -167.651 175.279 -152.174C200.34 -137.685 212.136 -115.158 227.37 -94.3358C243.415 -72.4053 268.047 -52.0395 266.844 -27.0202C265.616 -1.45831 247.579 23.8775 220.923 39.7988C195.876 54.7592 158.284 45.2515 129.167 55.2132C94.1416 67.1964 73.8786 99.2819 35.7481 103.153Z" fill="#5DB9F2"/>
</g>
<circle cx="1365" cy="40" r="10" fill="white"/>
<circle cx="1395.5" cy="40.5" r="7.5" fill="white" fill-opacity="0.5"/>
<circle cx="1423.5" cy="40.5" r="7.5" fill="white" fill-opacity="0.5"/>
<circle cx="1451.5" cy="40.5" r="7.5" fill="white" fill-opacity="0.5"/>
<rect x="44" y="521" width="247" height="85" rx="25" fill="white"/>
<path d="M90.6436 560.175H94.4033C95.6077 560.175 96.6006 559.971 97.3818 559.564C98.1631 559.141 98.7409 558.555 99.1152 557.807C99.5059 557.042 99.7012 556.155 99.7012 555.146C99.7012 554.234 99.5221 553.428 99.1641 552.729C98.8223 552.012 98.2933 551.459 97.5771 551.068C96.861 550.661 95.9577 550.458 94.8672 550.458C94.0046 550.458 93.207 550.629 92.4746 550.971C91.7422 551.312 91.1562 551.793 90.7168 552.411C90.2773 553.03 90.0576 553.778 90.0576 554.657H83.002C83.002 552.704 83.5228 551.003 84.5645 549.555C85.6224 548.106 87.0384 546.975 88.8125 546.161C90.5866 545.347 92.5397 544.94 94.6719 544.94C97.0807 544.94 99.1885 545.331 100.995 546.112C102.802 546.877 104.21 548.008 105.219 549.506C106.228 551.003 106.732 552.859 106.732 555.072C106.732 556.195 106.472 557.286 105.951 558.344C105.43 559.385 104.682 560.329 103.705 561.176C102.745 562.006 101.573 562.673 100.189 563.178C98.806 563.666 97.2516 563.91 95.5264 563.91H90.6436V560.175ZM90.6436 565.521V561.884H95.5264C97.4632 561.884 99.1641 562.104 100.629 562.543C102.094 562.982 103.323 563.617 104.315 564.447C105.308 565.261 106.057 566.229 106.562 567.353C107.066 568.459 107.318 569.688 107.318 571.039C107.318 572.699 107.001 574.18 106.366 575.482C105.731 576.768 104.836 577.859 103.681 578.754C102.541 579.649 101.207 580.333 99.6768 580.805C98.1468 581.26 96.4785 581.488 94.6719 581.488C93.1745 581.488 91.7015 581.285 90.2529 580.878C88.8206 580.455 87.5186 579.828 86.3467 578.998C85.1911 578.152 84.2633 577.094 83.5635 575.824C82.8799 574.538 82.5381 573.017 82.5381 571.259H89.5938C89.5938 572.17 89.8216 572.984 90.2773 573.7C90.7331 574.416 91.3597 574.978 92.1572 575.385C92.971 575.792 93.8743 575.995 94.8672 575.995C95.9902 575.995 96.9505 575.792 97.748 575.385C98.5618 574.962 99.1803 574.376 99.6035 573.627C100.043 572.862 100.263 571.975 100.263 570.966C100.263 569.664 100.027 568.622 99.5547 567.841C99.0827 567.043 98.4072 566.457 97.5283 566.083C96.6494 565.709 95.6077 565.521 94.4033 565.521H90.6436ZM136.298 545.453V549.237L122.553 581H115.131L128.876 550.946H111.176V545.453H136.298ZM164.789 560.102V566.254C164.789 568.923 164.504 571.226 163.935 573.163C163.365 575.084 162.543 576.662 161.469 577.899C160.411 579.12 159.149 580.023 157.685 580.609C156.22 581.195 154.592 581.488 152.802 581.488C151.369 581.488 150.035 581.309 148.798 580.951C147.561 580.577 146.446 579.999 145.453 579.218C144.477 578.437 143.63 577.452 142.914 576.264C142.214 575.059 141.677 573.627 141.303 571.967C140.928 570.307 140.741 568.402 140.741 566.254V560.102C140.741 557.432 141.026 555.146 141.596 553.241C142.182 551.321 143.004 549.75 144.062 548.529C145.136 547.309 146.405 546.413 147.87 545.844C149.335 545.258 150.963 544.965 152.753 544.965C154.185 544.965 155.512 545.152 156.732 545.526C157.969 545.884 159.084 546.446 160.077 547.211C161.07 547.976 161.916 548.961 162.616 550.165C163.316 551.353 163.853 552.777 164.228 554.438C164.602 556.081 164.789 557.969 164.789 560.102ZM157.733 567.182V559.149C157.733 557.864 157.66 556.741 157.514 555.78C157.383 554.82 157.18 554.006 156.903 553.339C156.627 552.655 156.285 552.102 155.878 551.679C155.471 551.256 155.007 550.946 154.486 550.751C153.965 550.556 153.388 550.458 152.753 550.458C151.955 550.458 151.247 550.613 150.629 550.922C150.027 551.231 149.514 551.728 149.091 552.411C148.668 553.078 148.342 553.974 148.114 555.097C147.903 556.203 147.797 557.554 147.797 559.149V567.182C147.797 568.467 147.862 569.599 147.992 570.575C148.139 571.552 148.35 572.39 148.627 573.09C148.92 573.773 149.262 574.335 149.652 574.774C150.059 575.198 150.523 575.507 151.044 575.702C151.581 575.897 152.167 575.995 152.802 575.995C153.583 575.995 154.275 575.84 154.877 575.531C155.495 575.206 156.016 574.701 156.439 574.018C156.879 573.318 157.204 572.406 157.416 571.283C157.628 570.16 157.733 568.793 157.733 567.182ZM193.5 560.102V566.254C193.5 568.923 193.215 571.226 192.646 573.163C192.076 575.084 191.254 576.662 190.18 577.899C189.122 579.12 187.86 580.023 186.396 580.609C184.931 581.195 183.303 581.488 181.513 581.488C180.08 581.488 178.746 581.309 177.509 580.951C176.272 580.577 175.157 579.999 174.164 579.218C173.188 578.437 172.341 577.452 171.625 576.264C170.925 575.059 170.388 573.627 170.014 571.967C169.639 570.307 169.452 568.402 169.452 566.254V560.102C169.452 557.432 169.737 555.146 170.307 553.241C170.893 551.321 171.715 549.75 172.772 548.529C173.847 547.309 175.116 546.413 176.581 545.844C178.046 545.258 179.674 544.965 181.464 544.965C182.896 544.965 184.223 545.152 185.443 545.526C186.68 545.884 187.795 546.446 188.788 547.211C189.781 547.976 190.627 548.961 191.327 550.165C192.027 551.353 192.564 552.777 192.938 554.438C193.313 556.081 193.5 557.969 193.5 560.102ZM186.444 567.182V559.149C186.444 557.864 186.371 556.741 186.225 555.78C186.094 554.82 185.891 554.006 185.614 553.339C185.338 552.655 184.996 552.102 184.589 551.679C184.182 551.256 183.718 550.946 183.197 550.751C182.676 550.556 182.099 550.458 181.464 550.458C180.666 550.458 179.958 550.613 179.34 550.922C178.738 551.231 178.225 551.728 177.802 552.411C177.379 553.078 177.053 553.974 176.825 555.097C176.614 556.203 176.508 557.554 176.508 559.149V567.182C176.508 568.467 176.573 569.599 176.703 570.575C176.85 571.552 177.061 572.39 177.338 573.09C177.631 573.773 177.973 574.335 178.363 574.774C178.77 575.198 179.234 575.507 179.755 575.702C180.292 575.897 180.878 575.995 181.513 575.995C182.294 575.995 182.986 575.84 183.588 575.531C184.206 575.206 184.727 574.701 185.15 574.018C185.59 573.318 185.915 572.406 186.127 571.283C186.339 570.16 186.444 568.793 186.444 567.182ZM213.764 569.051V586.688H209.826V566.207H213.477L213.764 569.051ZM223.129 573.439V573.727C223.129 574.802 223.001 575.8 222.746 576.721C222.5 577.641 222.135 578.443 221.652 579.127C221.169 579.801 220.568 580.33 219.848 580.713C219.137 581.087 218.316 581.273 217.387 581.273C216.484 581.273 215.701 581.091 215.035 580.727C214.37 580.362 213.809 579.852 213.354 579.195C212.907 578.53 212.547 577.76 212.273 576.885C212 576.01 211.79 575.071 211.645 574.068V573.316C211.79 572.241 212 571.257 212.273 570.363C212.547 569.461 212.907 568.682 213.354 568.025C213.809 567.36 214.365 566.845 215.021 566.48C215.687 566.116 216.466 565.934 217.359 565.934C218.298 565.934 219.123 566.111 219.834 566.467C220.554 566.822 221.156 567.333 221.639 567.998C222.131 568.663 222.5 569.456 222.746 570.377C223.001 571.298 223.129 572.318 223.129 573.439ZM219.178 573.727V573.439C219.178 572.811 219.123 572.232 219.014 571.703C218.913 571.165 218.749 570.696 218.521 570.295C218.303 569.894 218.011 569.584 217.646 569.365C217.291 569.137 216.858 569.023 216.348 569.023C215.81 569.023 215.35 569.11 214.967 569.283C214.593 569.456 214.288 569.707 214.051 570.035C213.814 570.363 213.636 570.755 213.518 571.211C213.399 571.667 213.326 572.182 213.299 572.756V574.656C213.344 575.331 213.472 575.937 213.682 576.475C213.891 577.003 214.215 577.423 214.652 577.732C215.09 578.042 215.664 578.197 216.375 578.197C216.895 578.197 217.332 578.083 217.688 577.855C218.043 577.618 218.33 577.295 218.549 576.885C218.777 576.475 218.936 576.001 219.027 575.463C219.128 574.925 219.178 574.346 219.178 573.727ZM229.801 579.332L233.725 566.207H237.949L232.002 583.229C231.874 583.602 231.701 584.003 231.482 584.432C231.273 584.86 230.986 585.266 230.621 585.648C230.266 586.04 229.814 586.359 229.268 586.605C228.73 586.852 228.069 586.975 227.285 586.975C226.911 586.975 226.606 586.952 226.369 586.906C226.132 586.861 225.85 586.797 225.521 586.715V583.83C225.622 583.83 225.727 583.83 225.836 583.83C225.945 583.839 226.05 583.844 226.15 583.844C226.67 583.844 227.094 583.785 227.422 583.666C227.75 583.548 228.014 583.365 228.215 583.119C228.415 582.882 228.575 582.572 228.693 582.189L229.801 579.332ZM228.16 566.207L231.373 576.926L231.934 581.096L229.254 581.383L223.936 566.207H228.16ZM248.586 559.699H251.771C251.771 560.438 251.68 561.071 251.498 561.6C251.316 562.119 251.024 562.566 250.623 562.939C250.222 563.304 249.684 563.614 249.01 563.869C248.335 564.124 247.501 564.343 246.508 564.525C245.742 564.68 245.077 564.936 244.512 565.291C243.956 565.646 243.495 566.134 243.131 566.754C242.775 567.365 242.52 568.139 242.365 569.078C242.21 570.008 242.156 571.129 242.201 572.441V573.098L239.139 573.521V572.865C239.148 571.079 239.307 569.525 239.617 568.203C239.936 566.882 240.387 565.77 240.971 564.867C241.554 563.956 242.256 563.231 243.076 562.693C243.896 562.146 244.808 561.764 245.811 561.545C246.485 561.399 247.023 561.258 247.424 561.121C247.834 560.975 248.13 560.793 248.312 560.574C248.495 560.355 248.586 560.064 248.586 559.699ZM246.863 567.041C247.866 567.041 248.755 567.214 249.529 567.561C250.304 567.898 250.956 568.376 251.484 568.996C252.013 569.616 252.414 570.345 252.688 571.184C252.961 572.022 253.098 572.938 253.098 573.932V574.219C253.098 575.23 252.943 576.169 252.633 577.035C252.332 577.892 251.885 578.639 251.293 579.277C250.701 579.915 249.971 580.412 249.105 580.768C248.24 581.114 247.251 581.287 246.139 581.287C245.018 581.287 244.02 581.1 243.145 580.727C242.279 580.344 241.545 579.811 240.943 579.127C240.351 578.434 239.9 577.628 239.59 576.707C239.289 575.777 239.139 574.766 239.139 573.672V573.371C239.139 573.216 239.207 573.066 239.344 572.92C239.49 572.765 239.658 572.592 239.85 572.4C240.05 572.209 240.228 571.967 240.383 571.676C240.93 570.664 241.527 569.816 242.174 569.133C242.821 568.44 243.527 567.921 244.293 567.574C245.068 567.219 245.924 567.041 246.863 567.041ZM246.111 570.117C245.373 570.117 244.781 570.295 244.334 570.65C243.887 570.997 243.564 571.462 243.363 572.045C243.172 572.619 243.076 573.248 243.076 573.932V574.219C243.076 574.775 243.131 575.294 243.24 575.777C243.35 576.251 243.523 576.675 243.76 577.049C243.997 577.413 244.311 577.701 244.703 577.91C245.095 578.111 245.574 578.211 246.139 578.211C246.686 578.211 247.15 578.111 247.533 577.91C247.925 577.701 248.24 577.413 248.477 577.049C248.714 576.675 248.887 576.251 248.996 575.777C249.105 575.294 249.16 574.775 249.16 574.219V573.932C249.16 573.412 249.105 572.924 248.996 572.469C248.887 572.004 248.714 571.598 248.477 571.252C248.24 570.896 247.925 570.618 247.533 570.418C247.141 570.217 246.667 570.117 246.111 570.117Z" fill="#4E98F6"/>
<path opacity="0.4" fill-rule="evenodd" clip-rule="evenodd" d="M332.209 590.913C332.209 588.183 334.419 585.973 337.149 585.973C339.847 585.973 342.057 588.183 342.057 590.913C342.057 593.61 339.847 595.82 337.149 595.82C334.419 595.82 332.209 593.61 332.209 590.913ZM368.772 590.913C368.772 588.183 370.982 585.973 373.712 585.973C376.409 585.973 378.619 588.183 378.619 590.913C378.619 593.61 376.409 595.82 373.712 595.82C370.982 595.82 368.772 593.61 368.772 590.913Z" fill="white"/>
<path fill-rule="evenodd" clip-rule="evenodd" d="M378.62 544.634C380.603 544.634 381.903 545.317 383.203 546.812C384.503 548.307 384.73 550.452 384.438 552.398L381.35 573.718C380.765 577.817 377.255 580.836 373.128 580.836H337.67C333.348 580.836 329.773 577.521 329.415 573.234L326.425 537.806L321.518 536.961C320.218 536.733 319.308 535.466 319.535 534.166C319.763 532.833 321.03 531.956 322.363 532.151L330.114 533.321C331.219 533.519 332.031 534.426 332.129 535.531L332.746 542.811C332.844 543.854 333.689 544.634 334.729 544.634H378.62ZM358.925 561.531H367.928C369.293 561.531 370.365 560.426 370.365 559.093C370.365 557.728 369.293 556.656 367.928 556.656H358.925C357.56 556.656 356.488 557.728 356.488 559.093C356.488 560.426 357.56 561.531 358.925 561.531Z" fill="white"/>
<circle cx="1414" cy="563" r="45" fill="white"/>
<path d="M1407.58 550.167L1420.42 563L1407.58 575.833" stroke="#4EB2EE" stroke-width="3" stroke-linecap="round" stroke-linejoin="round"/>
<circle cx="45" cy="45" r="45" transform="matrix(-1 0 0 1 1349 518)" fill="white"/>
<path d="M1310.42 550.167L1297.58 563L1310.42 575.833" stroke="#4EB2EE" stroke-width="3" stroke-linecap="round" stroke-linejoin="round"/>
<defs>
<linearGradient id="paint0_linear_726_84" x1="635.5" y1="37.1457" x2="2709.32" y2="1225.07" gradientUnits="userSpaceOnUse">
<stop stop-color="#4E91F7"/>
<stop offset="1" stop-color="#4DF6D8"/>
</linearGradient>
</defs>
</svg>
